<?xml version="1.0" encoding="UTF-8" standalone="no"?>
<!-- Created with Inkscape (http://www.inkscape.org/) -->

<svg
   width="19.084221mm"
   height="18.929705mm"
   viewBox="0 0 19.084221 18.929705"
   version="1.1"
   id="svg5"
   inkscape:version="1.1.1 (3bf5ae0d25, 2021-09-20)"
   sodipodi:docname="equipamento.svg"
   xmlns:inkscape="http://www.inkscape.org/namespaces/inkscape"
   xmlns:sodipodi="http://sodipodi.sourceforge.net/DTD/sodipodi-0.dtd"
   xmlns="http://www.w3.org/2000/svg"
   xmlns:svg="http://www.w3.org/2000/svg">
  <sodipodi:namedview
     id="namedview7"
     pagecolor="#ffffff"
     bordercolor="#666666"
     borderopacity="1.0"
     inkscape:pageshadow="2"
     inkscape:pageopacity="0.0"
     inkscape:pagecheckerboard="0"
     inkscape:document-units="mm"
     showgrid="false"
     fit-margin-top="0"
     fit-margin-left="0"
     fit-margin-right="0"
     fit-margin-bottom="0"
     inkscape:zoom="0.73406285"
     inkscape:cx="209.7913"
     inkscape:cy="442.06024"
     inkscape:window-width="1920"
     inkscape:window-height="1009"
     inkscape:window-x="-8"
     inkscape:window-y="-8"
     inkscape:window-maximized="1"
     inkscape:current-layer="layer1" />
  <defs
     id="defs2" />
  <g
     inkscape:label="Camada 1"
     inkscape:groupmode="layer"
     id="layer1"
     transform="translate(-14.636201,-31.672215)">
    <g
       id="g1084">
      <path
         d="m 24.135186,39.89809 c -0.08317,0.02184 -0.146177,0.07477 -0.190702,0.158778 l -0.02268,0.04368 v 2.858004 2.858004 l 0.01764,0.02352 c 0.0092,0.0126 0.03024,0.03024 0.04621,0.0378 0.02688,0.01344 0.005,0.01428 -0.478015,0.01512 -0.504057,0 -0.505737,0 -0.523379,0.01764 -0.01596,0.01596 -0.01764,0.02352 -0.01176,0.06553 0.0025,0.02604 0.0084,0.107532 0.01176,0.181461 0.0042,0.105852 0.0092,0.140296 0.021,0.163819 0.021,0.04116 0.05377,0.07393 0.09325,0.09493 l 0.0336,0.01848 h 5.212791 5.212791 l 0.0336,-0.01848 c 0.03948,-0.021 0.07225,-0.05377 0.09325,-0.09493 0.01176,-0.02352 0.0168,-0.05797 0.021,-0.163819 0.0034,-0.07393 0.0092,-0.155418 0.01176,-0.181461 0.0059,-0.04201 0.0042,-0.04957 -0.01176,-0.06553 -0.01764,-0.01764 -0.01932,-0.01764 -0.523379,-0.01764 -0.483055,-8.43e-4 -0.504897,-0.0017 -0.478014,-0.01512 0.01596,-0.0076 0.03696,-0.0252 0.04621,-0.0378 l 0.01764,-0.02352 v -2.858004 -2.858004 l -0.02856,-0.05293 c -0.03444,-0.06301 -0.07897,-0.105012 -0.142816,-0.135256 l -0.04704,-0.02184 -4.187876,-0.0017 c -3.300735,-8.4e-4 -4.196276,8.4e-4 -4.226519,0.0092 z m 2.746271,0.08065 c 0.03864,0.03612 0.03024,0.09829 -0.0168,0.122654 -0.05124,0.02688 -0.107532,-0.0092 -0.107532,-0.06889 0,-0.02856 0.0042,-0.03948 0.02184,-0.05293 0.0294,-0.02268 0.07813,-0.02352 0.102492,-8.4e-4 z m 5.596715,2.91093 v 2.709307 H 28.344903 24.211635 V 42.88967 40.180363 h 4.133268 4.133269 z m -2.789116,3.011742 c 0,0.01764 -0.0252,0.05797 -0.04705,0.07477 l -0.02268,0.01764 H 28.3449 27.070475 l -0.02268,-0.01764 c -0.02184,-0.0168 -0.04705,-0.05713 -0.04705,-0.07477 0,-0.0059 0.411647,-0.0084 1.344153,-0.0084 0.932506,0 1.344153,0.0025 1.344153,0.0084 z m 2.81852,0.162978 c 0.07813,0.03276 0.08485,0.157098 0.01008,0.194902 -0.03696,0.02016 -0.09325,0.01848 -0.121814,-0.0017 -0.07141,-0.05293 -0.06133,-0.157938 0.01848,-0.193222 0.0336,-0.01428 0.05797,-0.01428 0.09325,0 z m 0.3604,0 c 0.03697,0.01512 0.06469,0.05545 0.06553,0.09577 8.43e-4,0.08821 -0.08233,0.140296 -0.161298,0.100811 -0.06637,-0.0336 -0.08485,-0.105852 -0.04032,-0.162138 0.03276,-0.042 0.08569,-0.05545 0.136095,-0.03444 z m 0.378883,0.0084 c 0.03108,0.02016 0.04705,0.05041 0.04789,0.08821 8.42e-4,0.04873 -0.02436,0.08569 -0.07141,0.105012 -0.03948,0.01596 -0.03948,0.01596 -0.07813,0 -0.05125,-0.021 -0.07477,-0.05293 -0.07477,-0.09997 0,-0.08737 0.102492,-0.141136 0.17642,-0.09325 z m -9.1688,0.06385 c 0.02184,0.01176 0.02016,0.0378 -0.0025,0.05377 -0.02856,0.02016 -0.640153,0.02016 -0.668716,0 -0.02184,-0.01512 -0.02352,-0.02604 -0.0042,-0.04705 0.0126,-0.01428 0.03445,-0.01512 0.336038,-0.01512 0.206664,0 0.328477,0.0034 0.339399,0.0084 z"
         id="path874"
         style="fill:#00f400;fill-opacity:1;stroke:none;stroke-width:0.000840094" />
      <path
         d="m 22.114378,31.712426 c -0.01008,0.02419 -0.296305,1.229566 -0.634939,2.674809 -0.338635,1.447259 -0.618814,2.632479 -0.622846,2.636511 -0.02016,0.02016 -3.950735,1.658905 -3.96686,1.654874 -0.01008,-0.004 -0.09071,-0.179396 -0.175365,-0.389027 -0.08667,-0.211646 -0.481748,-1.173126 -0.876821,-2.136621 -0.431355,-1.048155 -0.737739,-1.767753 -0.761927,-1.789925 -0.05644,-0.04636 -0.147145,-0.04233 -0.268086,0.01411 -0.09474,0.04435 -0.171333,0.12094 -0.171333,0.175364 0,0.01209 0.399105,0.979621 0.884884,2.152747 0.487795,1.171111 0.888916,2.140654 0.892947,2.154763 0.004,0.02016 -0.183427,0.108847 -0.578501,0.274133 -0.322508,0.13505 -0.594625,0.25196 -0.604704,0.258007 -0.01411,0.0081 0.002,0.36887 0.04434,1.038076 0.03427,0.562375 0.0645,1.052185 0.0645,1.086452 0.002,0.0645 0.02016,0.07458 1.858458,1.116687 l 1.854427,1.052186 0.528108,-0.247929 c 0.290258,-0.137066 2.049948,-0.971558 3.914453,-1.854427 l 3.386344,-1.604482 v -1.074358 -1.076374 l -1.882646,-0.862711 c -1.03606,-0.473685 -1.89474,-0.862711 -1.90885,-0.862711 -0.01613,0 -0.397089,0.155207 -0.846586,0.342665 -0.451512,0.189475 -0.824413,0.34065 -0.828445,0.334603 -0.006,-0.006 0.253976,-1.126765 0.576485,-2.493397 0.405152,-1.721392 0.580516,-2.491382 0.566406,-2.507507 -0.02217,-0.0262 -0.197537,-0.07861 -0.336619,-0.100785 -0.0766,-0.01209 -0.08869,-0.0081 -0.106831,0.03427 z"
         id="path964"
         style="fill:#e20000;fill-opacity:1;stroke:none;stroke-width:0.00201568" />
      <g
         transform="matrix(8.9518042e-4,0,0,-8.9518042e-4,15.402227,50.606397)"
         fill="#000000"
         stroke="none"
         id="g996"
         style="fill:#0000e9;fill-opacity:1">
        <path
           d="m 9620,7641 c -69,-21 -130,-73 -166,-141 -18,-34 -19,-144 -19,-3675 0,-3531 1,-3641 19,-3675 26,-49 74,-98 121,-123 l 40,-22 h 1500 1500 l 40,22 c 47,25 95,74 121,123 18,34 19,144 19,3675 0,3531 -1,3641 -19,3675 -26,49 -74,98 -121,123 l -40,22 -1485,2 c -817,1 -1496,-2 -1510,-6 z m 2384,-823 c 9,-12 16,-32 16,-43 0,-11 -7,-31 -16,-43 l -15,-22 h -939 -939 l -15,22 c -9,12 -16,32 -16,43 0,11 7,31 16,43 l 15,22 h 939 939 z m 0,-320 c 22,-31 20,-64 -4,-88 -20,-20 -33,-20 -950,-20 -917,0 -930,0 -950,20 -24,24 -26,57 -4,88 l 15,22 h 939 939 z m -203,-610 c 52,-15 117,-73 140,-122 22,-49 25,-143 6,-189 -65,-155 -273,-193 -389,-70 -61,64 -78,171 -41,253 50,110 168,163 284,128 z m 147,-1400 c 7,-7 12,-29 12,-49 0,-74 74,-69 -961,-69 -916,0 -929,0 -949,20 -22,22 -26,60 -10,91 10,19 32,19 953,19 720,0 946,-3 955,-12 z m 0,-390 c 7,-7 12,-29 12,-49 0,-74 74,-69 -961,-69 -916,0 -929,0 -949,20 -22,22 -26,60 -10,91 10,19 32,19 953,19 720,0 946,-3 955,-12 z m 0,-390 c 7,-7 12,-29 12,-49 0,-74 64,-69 -967,-69 -910,0 -923,0 -943,20 -22,22 -26,60 -10,91 10,19 32,19 953,19 720,0 946,-3 955,-12 z m 0,-390 c 7,-7 12,-29 12,-49 0,-74 64,-69 -967,-69 -910,0 -923,0 -943,20 -22,22 -26,60 -10,91 10,19 32,19 953,19 720,0 946,-3 955,-12 z m 222,-1329 c 21,-12 47,-38 59,-59 20,-37 21,-49 21,-432 0,-393 0,-395 -22,-428 -13,-18 -36,-43 -51,-54 -27,-20 -42,-21 -315,-24 -282,-3 -288,-2 -332,20 -33,17 -51,35 -67,68 -23,43 -23,50 -23,415 0,211 4,385 10,404 5,19 20,45 32,59 45,49 63,51 367,52 270,0 285,-1 321,-21 z"
           id="path992"
           style="fill:#0000e9;fill-opacity:1" />
        <path
           d="M 109,7597 C 80,7581 55,7557 35,7525 L 5,7477 2,4676 C -1,1590 -5,1830 60,1763 c 67,-68 -94,-63 1919,-63 1617,0 1821,-2 1821,-15 0,-15 -78,-1007 -82,-1055 l -3,-25 -677,-5 c -813,-6 -733,11 -733,-156 V 336 l 34,-23 34,-23 h 2024 c 2206,0 2081,-3 2103,55 14,36 13,168 -1,199 -26,55 -32,56 -724,56 -598,0 -635,1 -635,18 0,9 -18,240 -40,512 -22,272 -40,512 -40,533 v 37 h 1818 c 1736,0 1819,1 1857,19 58,26 101,80 115,143 8,39 10,779 8,2833 -3,2568 -4,2782 -20,2810 -20,38 -63,78 -105,99 -29,15 -392,16 -4306,16 H 153 Z M 8635,4660 V 1985 l -4207,-3 -4208,-2 v 2680 2680 l 4208,-2 4207,-3 z"
           id="path994"
           style="fill:#0000e9;fill-opacity:1" />
      </g>
    </g>
  </g>
</svg>
